# xmcd
#
# Track frame offsets:
#  150
#  13272
#  24825
#  42492
#  56757
#  71000
#  82410
#  94692
#  106777
#  118727
#  134030
#  147025
#  161232
#  173577
#  185887
#  202757
#
# Disc length: 2914 seconds
#
# Revision: 0
# Processed by: cddbd v1.5.1PL2 Copyright (c) Steve Scherf et al.
# Submitted via: Collectorz.com_Music_Collector 6.10
#
DISCID=e70b6010
DTITLE=Roscoe Chenier - Roscoe Style
DYEAR=1998
DGENRE=Blues
TTITLE0=Blues Around My Bed
TTITLE1=Stick To You Baby
TTITLE2=Geneva
TTITLE3=Rainin' In My Hart
TTITLE4=Next Time You See Me
TTITLE5=Sugar Mama
TTITLE6=A Mother's Love
TTITLE7=Troubles In My Live
TTITLE8=Wild Cherry
TTITLE9=5:19 Blues
TTITLE10=Netherlands Blues
TTITLE11=Black Night
TTITLE12=Good Hearted Man
TTITLE13=Walkin' With Frankie
TTITLE14=My Baby's Leaving
TTITLE15=Tomcat Blues
EXTD=
EXTT0=
EXTT1=
EXTT2=
EXTT3=
EXTT4=
EXTT5=
EXTT6=
EXTT7=
EXTT8=
EXTT9=
EXTT10=
EXTT11=
EXTT12=
EXTT13=
EXTT14=
EXTT15=
PLAYORDER=
